<svg xmlns="http://www.w3.org/2000/svg" viewBox="0 0 1400 900" role="img" aria-labelledby="title desc">
  <title id="title">Barbershop chair</title>
  <desc id="desc">Premium barbershop chair in a warm dark studio.</desc>
  <defs>
    <linearGradient id="bg" x1="0" x2="1" y1="0" y2="1">
      <stop offset="0" stop-color="#050505"/>
      <stop offset="0.52" stop-color="#191611"/>
      <stop offset="1" stop-color="#070605"/>
    </linearGradient>
    <radialGradient id="lamp" cx="68%" cy="12%" r="52%">
      <stop offset="0" stop-color="#d1a65e" stop-opacity="0.72"/>
      <stop offset="0.32" stop-color="#8b6430" stop-opacity="0.26"/>
      <stop offset="1" stop-color="#000000" stop-opacity="0"/>
    </radialGradient>
    <linearGradient id="leather" x1="0" x2="1" y1="0" y2="1">
      <stop offset="0" stop-color="#2a2722"/>
      <stop offset="0.45" stop-color="#11100e"/>
      <stop offset="1" stop-color="#050505"/>
    </linearGradient>
    <linearGradient id="brass" x1="0" x2="1">
      <stop offset="0" stop-color="#8f672f"/>
      <stop offset="0.55" stop-color="#d0a45b"/>
      <stop offset="1" stop-color="#6b4b22"/>
    </linearGradient>
    <filter id="soft" x="-20%" y="-20%" width="140%" height="140%">
      <feDropShadow dx="0" dy="22" stdDeviation="28" flood-color="#000000" flood-opacity="0.55"/>
    </filter>
  </defs>
  <rect width="1400" height="900" fill="url(#bg)"/>
  <rect width="1400" height="900" fill="url(#lamp)"/>
  <g opacity="0.18">
    <path d="M0 705h1400" stroke="#d0a45b"/>
    <path d="M0 740h1400" stroke="#ffffff" stroke-opacity="0.08"/>
    <path d="M0 790h1400" stroke="#000000"/>
  </g>
  <g transform="translate(265 120)" filter="url(#soft)">
    <rect x="305" y="96" width="350" height="420" rx="72" fill="url(#leather)" stroke="#4a4034" stroke-width="8"/>
    <rect x="345" y="20" width="270" height="135" rx="58" fill="#191613" stroke="#61533f" stroke-width="7"/>
    <rect x="252" y="430" width="455" height="120" rx="54" fill="#141210" stroke="#4d4236" stroke-width="7"/>
    <path d="M308 548h344l62 160H246z" fill="#0f0e0d" stroke="#42382d" stroke-width="7"/>
    <rect x="415" y="690" width="130" height="40" rx="20" fill="url(#brass)"/>
    <rect x="356" y="725" width="248" height="34" rx="17" fill="#0a0908"/>
    <circle cx="230" cy="600" r="56" fill="#0c0b0a" stroke="#4d4236" stroke-width="7"/>
    <circle cx="730" cy="600" r="56" fill="#0c0b0a" stroke="#4d4236" stroke-width="7"/>
    <path d="M245 282h-95c-45 0-82 37-82 82v70h177z" fill="#151310" stroke="#463c32" stroke-width="7"/>
    <path d="M715 282h95c45 0 82 37 82 82v70H715z" fill="#151310" stroke="#463c32" stroke-width="7"/>
  </g>
  <g opacity="0.42">
    <rect x="1040" y="145" width="150" height="18" rx="9" fill="#d0a45b"/>
    <rect x="1020" y="184" width="215" height="14" rx="7" fill="#ffffff" opacity="0.14"/>
    <rect x="1065" y="216" width="120" height="12" rx="6" fill="#ffffff" opacity="0.1"/>
  </g>
</svg>
